<!DOCTYPE svg PUBLIC "-//W3C//DTD SVG 1.1//EN" "http://www.w3.org/Graphics/SVG/1.1/DTD/svg11.dtd">
<!-- Uploaded to: SVG Repo, www.svgrepo.com, Transformed by: SVG Repo Mixer Tools -->
<svg width="800px" height="800px" viewBox="0 0 48 48" xmlns="http://www.w3.org/2000/svg" fill="#000000">
<g id="SVGRepo_bgCarrier" stroke-width="0"/>
<g id="SVGRepo_tracerCarrier" stroke-linecap="round" stroke-linejoin="round" stroke="#CCCCCC" stroke-width="3.7439999999999998">
<defs>
<style>.a{fill:none;stroke:#234545;stroke-linecap:round;stroke-linejoin:round;}</style>
</defs>
<circle class="a" cx="24" cy="24" r="19.5"/>
<path class="a" d="M18.135,31.36a5.4836,5.4836,0,0,0,4.6,2.07h2.76a4.6,4.6,0,0,0,0-9.2h-2.99a4.6,4.6,0,1,1,0-9.2h2.76c2.07,0,3.45.46,4.6,2.07m-5.98-4.6v23"/>
</g>
<g id="SVGRepo_iconCarrier">
<defs>
<style>.a{fill:none;stroke:#234545;stroke-linecap:round;stroke-linejoin:round;}</style>
</defs>
<circle class="a" cx="24" cy="24" r="19.5"/>
<path class="a" d="M18.135,31.36a5.4836,5.4836,0,0,0,4.6,2.07h2.76a4.6,4.6,0,0,0,0-9.2h-2.99a4.6,4.6,0,1,1,0-9.2h2.76c2.07,0,3.45.46,4.6,2.07m-5.98-4.6v23"/>
</g>
</svg>